<svg id="mermaid-1623864358035" width="100%" xmlns="http://www.w3.org/2000/svg" xmlns:xlink="http://www.w3.org/1999/xlink" height="1346.7579345703125" style="max-width: 2157.96875px;" viewBox="0 0 2157.96875 1346.7579345703125"><style>#mermaid-1623864358035{font-family:"trebuchet ms",verdana,arial,sans-serif;font-size:16px;fill:#333;}#mermaid-1623864358035 .error-icon{fill:#552222;}#mermaid-1623864358035 .error-text{fill:#552222;stroke:#552222;}#mermaid-1623864358035 .edge-thickness-normal{stroke-width:2px;}#mermaid-1623864358035 .edge-thickness-thick{stroke-width:3.5px;}#mermaid-1623864358035 .edge-pattern-solid{stroke-dasharray:0;}#mermaid-1623864358035 .edge-pattern-dashed{stroke-dasharray:3;}#mermaid-1623864358035 .edge-pattern-dotted{stroke-dasharray:2;}#mermaid-1623864358035 .marker{fill:#333333;stroke:#333333;}#mermaid-1623864358035 .marker.cross{stroke:#333333;}#mermaid-1623864358035 svg{font-family:"trebuchet ms",verdana,arial,sans-serif;font-size:16px;}#mermaid-1623864358035 .label{font-family:"trebuchet ms",verdana,arial,sans-serif;color:#333;}#mermaid-1623864358035 .cluster-label text{fill:#333;}#mermaid-1623864358035 .cluster-label span{color:#333;}#mermaid-1623864358035 .label text,#mermaid-1623864358035 span{fill:#333;color:#333;}#mermaid-1623864358035 .node rect,#mermaid-1623864358035 .node circle,#mermaid-1623864358035 .node ellipse,#mermaid-1623864358035 .node polygon,#mermaid-1623864358035 .node path{fill:#ECECFF;stroke:#9370DB;stroke-width:1px;}#mermaid-1623864358035 .node .label{text-align:center;}#mermaid-1623864358035 .node.clickable{cursor:pointer;}#mermaid-1623864358035 .arrowheadPath{fill:#333333;}#mermaid-1623864358035 .edgePath .path{stroke:#333333;stroke-width:1.5px;}#mermaid-1623864358035 .flowchart-link{stroke:#333333;fill:none;}#mermaid-1623864358035 .edgeLabel{background-color:#e8e8e8;text-align:center;}#mermaid-1623864358035 .edgeLabel rect{opacity:0.5;background-color:#e8e8e8;fill:#e8e8e8;}#mermaid-1623864358035 .cluster rect{fill:#ffffde;stroke:#aaaa33;stroke-width:1px;}#mermaid-1623864358035 .cluster text{fill:#333;}#mermaid-1623864358035 .cluster span{color:#333;}#mermaid-1623864358035 div.mermaidTooltip{position:absolute;text-align:center;max-width:200px;padding:2px;font-family:"trebuchet ms",verdana,arial,sans-serif;font-size:12px;background:hsl(80,100%,96.2745098039%);border:1px solid #aaaa33;border-radius:2px;pointer-events:none;z-index:100;}#mermaid-1623864358035:root{--mermaid-font-family:"trebuchet ms",verdana,arial,sans-serif;}#mermaid-1623864358035 .StyleGoDaddyProd path{fill:#E22726 !important;color:#000000 !important;stroke:#FFFFFF !important;stroke-width:1px !important;}#mermaid-1623864358035 .StyleGoDaddyProd rect{fill:#E22726 !important;color:#000000 !important;stroke:#FFFFFF !important;stroke-width:1px !important;}#mermaid-1623864358035 .StyleGoDaddyProd polygon{fill:#E22726 !important;color:#000000 !important;stroke:#FFFFFF !important;stroke-width:1px !important;}#mermaid-1623864358035 .StyleGoDaddyProd ellipse{fill:#E22726 !important;color:#000000 !important;stroke:#FFFFFF !important;stroke-width:1px !important;}#mermaid-1623864358035 .StyleGoDaddyProd circle{fill:#E22726 !important;color:#000000 !important;stroke:#FFFFFF !important;stroke-width:1px !important;}#mermaid-1623864358035 .StyleGoDaddyProd tspan{fill:#000000 !important;}#mermaid-1623864358035 .StyleGoDaddyProdEMEA path{fill:#FED317 !important;color:#2F1C4C !important;stroke:#FADCD9 !important;stroke-width:1px !important;}#mermaid-1623864358035 .StyleGoDaddyProdEMEA rect{fill:#FED317 !important;color:#2F1C4C !important;stroke:#FADCD9 !important;stroke-width:1px !important;}#mermaid-1623864358035 .StyleGoDaddyProdEMEA polygon{fill:#FED317 !important;color:#2F1C4C !important;stroke:#FADCD9 !important;stroke-width:1px !important;}#mermaid-1623864358035 .StyleGoDaddyProdEMEA ellipse{fill:#FED317 !important;color:#2F1C4C !important;stroke:#FADCD9 !important;stroke-width:1px !important;}#mermaid-1623864358035 .StyleGoDaddyProdEMEA circle{fill:#FED317 !important;color:#2F1C4C !important;stroke:#FADCD9 !important;stroke-width:1px !important;}#mermaid-1623864358035 .StyleGoDaddyProdEMEA tspan{fill:#2F1C4C !important;}#mermaid-1623864358035 .StyleGoDaddyDev path{fill:#00782E !important;color:#D8EFEF !important;stroke:#FFEEA9 !important;stroke-width:1px !important;}#mermaid-1623864358035 .StyleGoDaddyDev rect{fill:#00782E !important;color:#D8EFEF !important;stroke:#FFEEA9 !important;stroke-width:1px !important;}#mermaid-1623864358035 .StyleGoDaddyDev polygon{fill:#00782E !important;color:#D8EFEF !important;stroke:#FFEEA9 !important;stroke-width:1px !important;}#mermaid-1623864358035 .StyleGoDaddyDev ellipse{fill:#00782E !important;color:#D8EFEF !important;stroke:#FFEEA9 !important;stroke-width:1px !important;}#mermaid-1623864358035 .StyleGoDaddyDev circle{fill:#00782E !important;color:#D8EFEF !important;stroke:#FFEEA9 !important;stroke-width:1px !important;}#mermaid-1623864358035 .StyleGoDaddyDev tspan{fill:#D8EFEF !important;}</style><g transform="translate(0, 0)"><marker id="flowchart-pointEnd" class="marker flowchart" viewBox="0 0 10 10" refX="9" refY="5" markerUnits="userSpaceOnUse" markerWidth="12" markerHeight="12" orient="auto"><path d="M 0 0 L 10 5 L 0 10 z" class="arrowMarkerPath" style="stroke-width: 1; stroke-dasharray: 1, 0;"></path></marker><marker id="flowchart-pointStart" class="marker flowchart" viewBox="0 0 10 10" refX="0" refY="5" markerUnits="userSpaceOnUse" markerWidth="12" markerHeight="12" orient="auto"><path d="M 0 5 L 10 10 L 10 0 z" class="arrowMarkerPath" style="stroke-width: 1; stroke-dasharray: 1, 0;"></path></marker><marker id="flowchart-circleEnd" class="marker flowchart" viewBox="0 0 10 10" refX="11" refY="5" markerUnits="userSpaceOnUse" markerWidth="11" markerHeight="11" orient="auto"><circle cx="5" cy="5" r="5" class="arrowMarkerPath" style="stroke-width: 1; stroke-dasharray: 1, 0;"></circle></marker><marker id="flowchart-circleStart" class="marker flowchart" viewBox="0 0 10 10" refX="-1" refY="5" markerUnits="userSpaceOnUse" markerWidth="11" markerHeight="11" orient="auto"><circle cx="5" cy="5" r="5" class="arrowMarkerPath" style="stroke-width: 1; stroke-dasharray: 1, 0;"></circle></marker><marker id="flowchart-crossEnd" class="marker cross flowchart" viewBox="0 0 11 11" refX="12" refY="5.2" markerUnits="userSpaceOnUse" markerWidth="11" markerHeight="11" orient="auto"><path d="M 1,1 l 9,9 M 10,1 l -9,9" class="arrowMarkerPath" style="stroke-width: 2; stroke-dasharray: 1, 0;"></path></marker><marker id="flowchart-crossStart" class="marker cross flowchart" viewBox="0 0 11 11" refX="-1" refY="5.2" markerUnits="userSpaceOnUse" markerWidth="11" markerHeight="11" orient="auto"><path d="M 1,1 l 9,9 M 10,1 l -9,9" class="arrowMarkerPath" style="stroke-width: 2; stroke-dasharray: 1, 0;"></path></marker><g class="root"><g class="clusters"><g class="cluster default" id="SQL"><rect style="" rx="0" ry="0" x="1275.515625" y="1148.4139995574951" width="874.453125" height="190.34400177001953"></rect><g class="cluster-label" transform="translate(1670.609375, 1153.4139995574951)"><text style=""><tspan xml:space="preserve" dy="1em" x="0" class="row">SQL Server</tspan></text></g></g><g class="cluster default" id="ZH"><rect style="" rx="0" ry="0" x="1275.515625" y="974.9139995574951" width="403.75" height="152"></rect><g class="cluster-label" transform="translate(1388.40625, 979.9139995574951)"><text style=""><tspan xml:space="preserve" dy="1em" x="0" class="row">Tanium Zone Server Hub</tspan></text></g></g><g class="cluster default" id="ZS"><rect style="" rx="0" ry="0" x="1729.265625" y="8" width="420.703125" height="1102.4139995574951"></rect><g class="cluster-label" transform="translate(1867.25, 13)"><text style=""><tspan xml:space="preserve" dy="1em" x="0" class="row">Tanium Zone Server</tspan></text></g></g><g class="cluster default" id="MS"><rect style="" rx="0" ry="0" x="251.53125" y="318.75" width="358.25" height="407.4139995574951"></rect><g class="cluster-label" transform="translate(350.28125, 323.75)"><text style=""><tspan xml:space="preserve" dy="1em" x="0" class="row">Tanium Module Server</tspan></text></g></g><g class="cluster default" id="TS"><rect style="" rx="0" ry="0" x="740.828125" y="480.25" width="353.828125" height="590.5860004425049"></rect><g class="cluster-label" transform="translate(865.828125, 485.25)"><text style=""><tspan xml:space="preserve" dy="1em" x="0" class="row">Tanium Server</tspan></text></g></g><g class="cluster default" id="SQL_A2"><rect style="" rx="0" ry="0" x="1300.515625" y="1168.4139995574951" width="824.453125" height="150.34400177001953"></rect><g class="cluster-label" transform="translate(1647.359375, 1173.4139995574951)"><text style=""><tspan xml:space="preserve" dy="1em" x="0" class="row">Ashburn, VA, USA</tspan></text></g></g><g class="cluster default" id="ZS_A2"><rect style="" rx="0" ry="0" x="1754.265625" y="28" width="370.703125" height="340.4139995574951"></rect><g class="cluster-label" transform="translate(1874.234375, 33)"><text style=""><tspan xml:space="preserve" dy="1em" x="0" class="row">Ashburn, VA, USA</tspan></text></g></g><g class="cluster default" id="ZS_P3"><rect style="" rx="0" ry="0" x="1754.265625" y="536.4139995574951" width="370.703125" height="349"></rect><g class="cluster-label" transform="translate(1874.9765625, 541.4139995574951)"><text style=""><tspan xml:space="preserve" dy="1em" x="0" class="row">Phoenix, AZ, USA</tspan></text></g></g><g class="cluster default" id="ZS_CGN"><rect style="" rx="0" ry="0" x="1754.265625" y="905.4139995574951" width="370.703125" height="185"></rect><g class="cluster-label" transform="translate(1894.2578125, 910.4139995574951)"><text style=""><tspan xml:space="preserve" dy="1em" x="0" class="row">Cologne, DE</tspan></text></g></g></g><g class="edgePaths"><path d="M1603.2421875,1243.5860004425049L1615.9127604166667,1243.5860004425049C1628.5833333333333,1243.5860004425049,1653.9244791666667,1243.5860004425049,1670.76171875,1243.5860004425049C1687.5989583333333,1243.5860004425049,1695.9322916666667,1243.5860004425049,1704.265625,1243.5860004425049C1712.5989583333333,1243.5860004425049,1720.9322916666667,1243.5860004425049,1729.265625,1243.5860004425049C1737.5989583333333,1243.5860004425049,1745.9322916666667,1243.5860004425049,1762.0989583333333,1243.5860004425049C1778.265625,1243.5860004425049,1802.265625,1243.5860004425049,1814.265625,1243.5860004425049L1826.265625,1243.5860004425049" id="L-SQL_A2_3-SQL_A2_4-0" class=" edge-thickness-normal edge-pattern-solid flowchart-link LS-SQL_A2_3 LE-SQL_A2_4" style="fill:none;" marker-start="url(#flowchart-pointStart)" marker-end="url(#flowchart-pointEnd)"></path><path d="M66.52997757520984,419.4139995574951L86.44295006267487,558.6783329645792C106.3559225501399,697.9426663716634,146.18186752506995,976.4713331858317,177.01541292920163,1115.7356665929158C207.84895833333334,1255,229.69010416666666,1255,270.46484375,1255C311.2395833333333,1255,370.9479166666667,1255,430.65625,1255C490.3645833333333,1255,550.0729166666666,1255,590.84765625,1255C631.6223958333334,1255,653.4635416666666,1255,675.3046875,1255C697.1458333333334,1255,718.9869791666666,1255,759.3932291666666,1255C799.7994791666666,1255,858.7708333333334,1255,917.7421875,1255C976.7135416666666,1255,1035.6848958333333,1255,1080.2421875,1204.9856665929158C1124.7994791666667,1154.9713331858318,1154.9427083333333,1054.9426663716633,1185.0859375,1004.9283329645792C1215.2291666666667,954.9139995574951,1245.3723958333333,954.9139995574951,1264.6106770833333,954.9139995574951C1283.8489583333333,954.9139995574951,1292.1822916666667,954.9139995574951,1327.9114583333333,954.9139995574951C1363.640625,954.9139995574951,1426.765625,954.9139995574951,1489.890625,954.9139995574951C1553.015625,954.9139995574951,1616.140625,954.9139995574951,1651.8697916666667,954.9139995574951C1687.5989583333333,954.9139995574951,1695.9322916666667,954.9139995574951,1704.265625,954.9139995574951C1712.5989583333333,954.9139995574951,1720.9322916666667,954.9139995574951,1729.265625,954.9139995574951C1737.5989583333333,954.9139995574951,1745.9322916666667,954.9139995574951,1765.544921875,958.9139995574951C1785.1575520833333,962.9139995574951,1816.0494791666667,970.9139995574951,1831.4954427083333,974.9139995574951L1846.94140625,978.9139995574951" id="L-TaniumClientExt-ZS_CGN_1-0" class=" edge-thickness-normal edge-pattern-dotted flowchart-link LS-TaniumClientExt LE-ZS_CGN_1" style="fill:none;stroke-width:2px;stroke-dasharray:3;" marker-end="url(#flowchart-pointEnd)"></path><path d="M70.05068089195825,387.4139995574951L89.37686949329854,334.1783329645793C108.70305809463883,280.9426663716634,147.35543529731942,174.4713331858317,177.60219681532635,121.23566659291585C207.84895833333334,68,229.69010416666666,68,270.46484375,68C311.2395833333333,68,370.9479166666667,68,430.65625,68C490.3645833333333,68,550.0729166666666,68,590.84765625,68C631.6223958333334,68,653.4635416666666,68,675.3046875,68C697.1458333333334,68,718.9869791666666,68,759.3932291666666,68C799.7994791666666,68,858.7708333333334,68,917.7421875,68C976.7135416666666,68,1035.6848958333333,68,1080.2421875,68C1124.7994791666667,68,1154.9427083333333,68,1185.0859375,68C1215.2291666666667,68,1245.3723958333333,68,1264.6106770833333,68C1283.8489583333333,68,1292.1822916666667,68,1327.9114583333333,68C1363.640625,68,1426.765625,68,1489.890625,68C1553.015625,68,1616.140625,68,1651.8697916666667,68C1687.5989583333333,68,1695.9322916666667,68,1704.265625,68C1712.5989583333333,68,1720.9322916666667,68,1729.265625,68C1737.5989583333333,68,1745.9322916666667,68,1775.8211931112598,87.90233325958252C1805.710094555853,107.80466651916504,1857.1545641117061,147.60933303833008,1882.8767988896325,167.5116662979126L1908.599033667559,187.41399955749512" id="L-TaniumClientExt-ZS_A2_1-0" class=" edge-thickness-normal edge-pattern-dotted flowchart-link LS-TaniumClientExt LE-ZS_A2_1" style="fill:none;stroke-width:2px;stroke-dasharray:3;" marker-end="url(#flowchart-pointEnd)"></path><path d="M71.78874706422812,387.4139995574951L90.8252579701901,347.0533329645793C109.86176887615208,306.6926663716634,147.93479068807605,225.9713331858317,177.8918745107047,185.61066659291586C207.84895833333334,145.25,229.69010416666666,145.25,270.46484375,145.25C311.2395833333333,145.25,370.9479166666667,145.25,430.65625,145.25C490.3645833333333,145.25,550.0729166666666,145.25,590.84765625,153.33333333333334C631.6223958333334,161.41666666666666,653.4635416666666,177.58333333333334,675.3046875,185.66666666666666C697.1458333333334,193.75,718.9869791666666,193.75,759.3932291666666,193.75C799.7994791666666,193.75,858.7708333333334,193.75,917.7421875,193.75C976.7135416666666,193.75,1035.6848958333333,193.75,1080.2421875,213.02733325958252C1124.7994791666667,232.30466651916504,1154.9427083333333,270.8593330383301,1185.0859375,290.1366662979126C1215.2291666666667,309.4139995574951,1245.3723958333333,309.4139995574951,1264.6106770833333,309.4139995574951C1283.8489583333333,309.4139995574951,1292.1822916666667,309.4139995574951,1327.9114583333333,309.4139995574951C1363.640625,309.4139995574951,1426.765625,309.4139995574951,1489.890625,309.4139995574951C1553.015625,309.4139995574951,1616.140625,309.4139995574951,1651.8697916666667,309.4139995574951C1687.5989583333333,309.4139995574951,1695.9322916666667,309.4139995574951,1704.265625,309.4139995574951C1712.5989583333333,309.4139995574951,1720.9322916666667,309.4139995574951,1729.265625,309.4139995574951C1737.5989583333333,309.4139995574951,1745.9322916666667,309.4139995574951,1759.8736979166667,309.4139995574951C1773.8151041666667,309.4139995574951,1793.3645833333333,309.4139995574951,1803.1393229166667,309.4139995574951L1812.9140625,309.4139995574951" id="L-TaniumClientExt-ZS_A2_2-0" class=" edge-thickness-normal edge-pattern-dotted flowchart-link LS-TaniumClientExt LE-ZS_A2_2" style="fill:none;stroke-width:2px;stroke-dasharray:3;" marker-end="url(#flowchart-pointEnd)"></path><path d="M82.85651533227214,387.4139995574951L100.04839819356012,372.6366662979126C117.24028105484808,357.8593330383301,151.62404677742404,328.30466651916504,179.73650255537868,313.5273332595825C207.84895833333334,298.75,229.69010416666666,298.75,270.46484375,298.75C311.2395833333333,298.75,370.9479166666667,298.75,430.65625,298.75C490.3645833333333,298.75,550.0729166666666,298.75,590.84765625,315.9583333333333C631.6223958333334,333.1666666666667,653.4635416666666,367.5833333333333,675.3046875,384.7916666666667C697.1458333333334,402,718.9869791666666,402,759.3932291666666,402C799.7994791666666,402,858.7708333333334,402,917.7421875,402C976.7135416666666,402,1035.6848958333333,402,1080.2421875,432.6523332595825C1124.7994791666667,463.30466651916504,1154.9427083333333,524.6093330383301,1185.0859375,555.2616662979126C1215.2291666666667,585.9139995574951,1245.3723958333333,585.9139995574951,1264.6106770833333,585.9139995574951C1283.8489583333333,585.9139995574951,1292.1822916666667,585.9139995574951,1327.9114583333333,585.9139995574951C1363.640625,585.9139995574951,1426.765625,585.9139995574951,1489.890625,585.9139995574951C1553.015625,585.9139995574951,1616.140625,585.9139995574951,1651.8697916666667,585.9139995574951C1687.5989583333333,585.9139995574951,1695.9322916666667,585.9139995574951,1704.265625,585.9139995574951C1712.5989583333333,585.9139995574951,1720.9322916666667,585.9139995574951,1729.265625,585.9139995574951C1737.5989583333333,585.9139995574951,1745.9322916666667,585.9139995574951,1761.5807291666667,587.6794579347343C1777.2291666666667,589.4449163119735,1800.1927083333333,592.9758330664519,1811.6744791666667,594.741291443691L1823.15625,596.5067498209303" id="L-TaniumClientExt-ZS_P3_1-0" class=" edge-thickness-normal edge-pattern-dotted flowchart-link LS-TaniumClientExt LE-ZS_P3_1" style="fill:none;stroke-width:2px;stroke-dasharray:3;" marker-end="url(#flowchart-pointEnd)"></path><path d="M66.80538429465977,419.4139995574951L86.67245566221648,543.4283329645792C106.53952702977318,667.4426663716634,146.2736697648866,915.4713331858317,177.06131404910994,1039.4856665929158C207.84895833333334,1163.5,229.69010416666666,1163.5,270.46484375,1163.5C311.2395833333333,1163.5,370.9479166666667,1163.5,430.65625,1163.5C490.3645833333333,1163.5,550.0729166666666,1163.5,590.84765625,1163.5C631.6223958333334,1163.5,653.4635416666666,1163.5,675.3046875,1163.5C697.1458333333334,1163.5,718.9869791666666,1163.5,759.3932291666666,1163.5C799.7994791666666,1163.5,858.7708333333334,1163.5,917.7421875,1163.5C976.7135416666666,1163.5,1035.6848958333333,1163.5,1080.2421875,1107.3189999262493C1124.7994791666667,1051.1379998524983,1154.9427083333333,938.7759997049967,1185.0859375,882.594999631246C1215.2291666666667,826.4139995574951,1245.3723958333333,826.4139995574951,1264.6106770833333,826.4139995574951C1283.8489583333333,826.4139995574951,1292.1822916666667,826.4139995574951,1327.9114583333333,826.4139995574951C1363.640625,826.4139995574951,1426.765625,826.4139995574951,1489.890625,826.4139995574951C1553.015625,826.4139995574951,1616.140625,826.4139995574951,1651.8697916666667,826.4139995574951C1687.5989583333333,826.4139995574951,1695.9322916666667,826.4139995574951,1704.265625,826.4139995574951C1712.5989583333333,826.4139995574951,1720.9322916666667,826.4139995574951,1729.265625,826.4139995574951C1737.5989583333333,826.4139995574951,1745.9322916666667,826.4139995574951,1759.50390625,826.4139995574951C1773.0755208333333,826.4139995574951,1791.8854166666667,826.4139995574951,1801.2903645833333,826.4139995574951L1810.6953125,826.4139995574951" id="L-TaniumClientExt-ZS_P3_2-0" class=" edge-thickness-normal edge-pattern-dotted flowchart-link LS-TaniumClientExt LE-ZS_P3_2" style="fill:none;stroke-width:2px;stroke-dasharray:3;" marker-end="url(#flowchart-pointEnd)"></path><path d="M837.68857421875,825.6639995574951L821.545166015625,843.9139995574951C805.4017578125,862.1639995574951,773.1149414062501,898.6639995574951,746.0509602864582,916.9139995574951C718.9869791666666,935.1639995574951,697.1458333333334,935.1639995574951,675.3046875,896.9973328908285C653.4635416666666,858.8306662241617,631.6223958333334,782.4973328908285,596.0953339920508,712.2889995574951C560.5682721507682,642.0806662241617,511.3552943015363,577.9973328908285,486.7488053769203,545.9556662241617L462.1423164523044,513.9139995574951" id="L-TS_A2-MS_A2-0" class=" edge-thickness-normal edge-pattern-solid flowchart-link LS-TS_A2 LE-MS_A2" style="fill:none;" marker-end="url(#flowchart-pointEnd)"></path><path d="M584.78125,513.6434402732024L588.9479166666666,514.744533561002C593.1145833333334,515.8456268488015,601.4479166666666,518.0478134244008,616.53515625,519.1489067122004C631.6223958333334,520.25,653.4635416666666,520.25,675.3046875,520.25C697.1458333333334,520.25,718.9869791666666,520.25,746.9768496774944,540.9856665929159C774.9667201883221,561.7213331858317,809.1053153766442,603.1926663716634,826.1746129708052,623.9283329645792L843.2439105649662,644.6639995574951" id="L-MS_A2-TS_A2-0" class=" edge-thickness-normal edge-pattern-solid flowchart-link LS-MS_A2 LE-TS_A2" style="fill:none;" marker-end="url(#flowchart-pointEnd)"></path><path d="M507.027085591224,431.9139995574951L524.1527796593533,422.7199996312459C541.2784737274827,413.52599970499676,575.5298618637413,395.13799985249835,603.5761288485373,344.55466651916504C631.6223958333334,293.9713331858317,653.4635416666666,211.19266637166342,675.3046875,169.80333296457925C697.1458333333334,128.41399955749512,718.9869791666666,128.41399955749512,759.3932291666666,128.41399955749512C799.7994791666666,128.41399955749512,858.7708333333334,128.41399955749512,917.7421875,128.41399955749512C976.7135416666666,128.41399955749512,1035.6848958333333,128.41399955749512,1080.2421875,128.41399955749512C1124.7994791666667,128.41399955749512,1154.9427083333333,128.41399955749512,1185.0859375,128.41399955749512C1215.2291666666667,128.41399955749512,1245.3723958333333,128.41399955749512,1264.6106770833333,128.41399955749512C1283.8489583333333,128.41399955749512,1292.1822916666667,128.41399955749512,1327.9114583333333,128.41399955749512C1363.640625,128.41399955749512,1426.765625,128.41399955749512,1489.890625,128.41399955749512C1553.015625,128.41399955749512,1616.140625,128.41399955749512,1651.8697916666667,128.41399955749512C1687.5989583333333,128.41399955749512,1695.9322916666667,128.41399955749512,1704.265625,128.41399955749512C1712.5989583333333,128.41399955749512,1720.9322916666667,128.41399955749512,1729.265625,128.41399955749512C1737.5989583333333,128.41399955749512,1745.9322916666667,128.41399955749512,1772.05827999498,138.24733289082846C1798.1842683232933,148.08066622416177,1842.1029116465863,167.74733289082846,1864.062233308233,177.58066622416177L1886.0215549698796,187.41399955749512" id="L-MS_A2-ZS_A2_1-0" class=" edge-thickness-normal edge-pattern-solid flowchart-link LS-MS_A2 LE-ZS_A2_1" style="fill:none;" marker-end="url(#flowchart-pointEnd)"></path><path d="M584.78125,462.0174807477313L588.9479166666666,461.7229006231094C593.1145833333334,461.4283204984875,601.4479166666666,460.8391602492438,616.53515625,460.5445801246219C631.6223958333334,460.25,653.4635416666666,460.25,675.3046875,460.25C697.1458333333334,460.25,718.9869791666666,460.25,759.3932291666666,460.25C799.7994791666666,460.25,858.7708333333334,460.25,917.7421875,460.25C976.7135416666666,460.25,1035.6848958333333,460.25,1080.2421875,491.5689999262492C1124.7994791666667,522.8879998524984,1154.9427083333333,585.5259997049967,1185.0859375,616.844999631246C1215.2291666666667,648.1639995574951,1245.3723958333333,648.1639995574951,1264.6106770833333,648.1639995574951C1283.8489583333333,648.1639995574951,1292.1822916666667,648.1639995574951,1327.9114583333333,648.1639995574951C1363.640625,648.1639995574951,1426.765625,648.1639995574951,1489.890625,648.1639995574951C1553.015625,648.1639995574951,1616.140625,648.1639995574951,1651.8697916666667,648.1639995574951C1687.5989583333333,648.1639995574951,1695.9322916666667,648.1639995574951,1704.265625,648.1639995574951C1712.5989583333333,648.1639995574951,1720.9322916666667,648.1639995574951,1729.265625,648.1639995574951C1737.5989583333333,648.1639995574951,1745.9322916666667,648.1639995574951,1761.5807291666667,646.073325163396C1777.2291666666667,643.982650769297,1800.1927083333333,639.8013019810988,1811.6744791666667,637.7106275869997L1823.15625,635.6199531929008" id="L-MS_A2-ZS_P3_1-0" class=" edge-thickness-normal edge-pattern-solid flowchart-link LS-MS_A2 LE-ZS_P3_1" style="fill:none;" marker-end="url(#flowchart-pointEnd)"></path><path d="M978.6375199649783,825.6639995574951L997.9739749708152,854.4009997049967C1017.3104299766522,883.1379998524984,1055.9833399883262,940.6120001475016,1090.3914095774965,1010.2656669616699C1124.7994791666667,1079.9193337758381,1154.9427083333333,1161.7526671091716,1185.0859375,1202.6693337758381C1215.2291666666667,1243.5860004425049,1245.3723958333333,1243.5860004425049,1264.6106770833333,1243.5860004425049C1283.8489583333333,1243.5860004425049,1292.1822916666667,1243.5860004425049,1309.01953125,1243.5860004425049C1325.8567708333333,1243.5860004425049,1351.1979166666667,1243.5860004425049,1363.8684895833333,1243.5860004425049L1376.5390625,1243.5860004425049" id="L-TS_A2-SQL_A2_3-0" class=" edge-thickness-normal edge-pattern-solid flowchart-link LS-TS_A2 LE-SQL_A2_3" style="fill:none;" marker-end="url(#flowchart-pointEnd)"></path><path d="M1020.4830343568667,825.6639995574951L1032.8452369640556,836.5533329645792C1045.2074395712445,847.4426663716634,1069.9318447856222,869.2213331858317,1097.3656619761443,906.7629998524984C1124.7994791666667,944.304666519165,1154.9427083333333,997.6093330383301,1185.0859375,1024.2616662979126C1215.2291666666667,1050.9139995574951,1245.3723958333333,1050.9139995574951,1264.6106770833333,1050.9139995574951C1283.8489583333333,1050.9139995574951,1292.1822916666667,1050.9139995574951,1300.515625,1050.9139995574951C1308.8489583333333,1050.9139995574951,1317.1822916666667,1050.9139995574951,1321.3489583333333,1050.9139995574951L1325.515625,1050.9139995574951" id="L-TS_A2-ZH_P3-0" class=" edge-thickness-normal edge-pattern-solid flowchart-link LS-TS_A2 LE-ZH_P3" style="fill:none;" marker-end="url(#flowchart-pointEnd)"></path><path d="M1654.265625,1050.9139995574951L1658.4322916666667,1050.9139995574951C1662.5989583333333,1050.9139995574951,1670.9322916666667,1050.9139995574951,1679.265625,1050.9139995574951C1687.5989583333333,1050.9139995574951,1695.9322916666667,1050.9139995574951,1704.265625,1050.9139995574951C1712.5989583333333,1050.9139995574951,1720.9322916666667,1050.9139995574951,1729.265625,1050.9139995574951C1737.5989583333333,1050.9139995574951,1745.9322916666667,1050.9139995574951,1765.544921875,1046.9139995574951C1785.1575520833333,1042.9139995574951,1816.0494791666667,1034.9139995574951,1831.4954427083333,1030.9139995574951L1846.94140625,1026.9139995574951" id="L-ZH_P3-ZS_CGN_1-0" class=" edge-thickness-normal edge-pattern-solid flowchart-link LS-ZH_P3 LE-ZS_CGN_1" style="fill:none;" marker-end="url(#flowchart-pointEnd)"></path><path d="M1010.7391130907251,644.6639995574951L1024.7253025756042,631.0533329645792C1038.7114920604834,617.4426663716634,1066.6838710302418,590.2213331858317,1095.7416750984542,523.804666519165C1124.7994791666667,457.38799985249835,1154.9427083333333,351.77599970499676,1185.0859375,298.9699996312459C1215.2291666666667,246.16399955749512,1245.3723958333333,246.16399955749512,1264.6106770833333,246.16399955749512C1283.8489583333333,246.16399955749512,1292.1822916666667,246.16399955749512,1327.9114583333333,246.16399955749512C1363.640625,246.16399955749512,1426.765625,246.16399955749512,1489.890625,246.16399955749512C1553.015625,246.16399955749512,1616.140625,246.16399955749512,1651.8697916666667,246.16399955749512C1687.5989583333333,246.16399955749512,1695.9322916666667,246.16399955749512,1704.265625,246.16399955749512C1712.5989583333333,246.16399955749512,1720.9322916666667,246.16399955749512,1729.265625,246.16399955749512C1737.5989583333333,246.16399955749512,1745.9322916666667,246.16399955749512,1750.0989583333333,246.16399955749512L1754.265625,246.16399955749512" id="L-TS_A2-ZS_A2-0" class=" edge-thickness-normal edge-pattern-solid flowchart-link LS-TS_A2 LE-ZS_A2" style="fill:none;" marker-end="url(#flowchart-pointEnd)"></path><path d="M1069.65625,735.1639995574951L1073.8229166666667,735.1639995574951C1077.9895833333333,735.1639995574951,1086.3229166666667,735.1639995574951,1105.5611979166667,735.1639995574951C1124.7994791666667,735.1639995574951,1154.9427083333333,735.1639995574951,1185.0859375,735.1639995574951C1215.2291666666667,735.1639995574951,1245.3723958333333,735.1639995574951,1264.6106770833333,735.1639995574951C1283.8489583333333,735.1639995574951,1292.1822916666667,735.1639995574951,1327.9114583333333,735.1639995574951C1363.640625,735.1639995574951,1426.765625,735.1639995574951,1489.890625,735.1639995574951C1553.015625,735.1639995574951,1616.140625,735.1639995574951,1651.8697916666667,735.1639995574951C1687.5989583333333,735.1639995574951,1695.9322916666667,735.1639995574951,1704.265625,735.1639995574951C1712.5989583333333,735.1639995574951,1720.9322916666667,735.1639995574951,1729.265625,735.1639995574951C1737.5989583333333,735.1639995574951,1745.9322916666667,735.1639995574951,1750.0989583333333,735.1639995574951L1754.265625,735.1639995574951" id="L-TS_A2-ZS_P3-0" class=" edge-thickness-normal edge-pattern-solid flowchart-link LS-TS_A2 LE-ZS_P3" style="fill:none;" marker-end="url(#flowchart-pointEnd)"></path><path d="M1069.65625,669.548180551291L1073.8229166666667,667.7484837927425C1077.9895833333333,665.948787034194,1086.3229166666667,662.3493935170969,1105.5611979166667,620.827030018131C1124.7994791666667,579.304666519165,1154.9427083333333,499.8593330383301,1185.0859375,460.1366662979126C1215.2291666666667,420.4139995574951,1245.3723958333333,420.4139995574951,1264.6106770833333,420.4139995574951C1283.8489583333333,420.4139995574951,1292.1822916666667,420.4139995574951,1327.9114583333333,420.4139995574951C1363.640625,420.4139995574951,1426.765625,420.4139995574951,1489.890625,420.4139995574951C1553.015625,420.4139995574951,1616.140625,420.4139995574951,1651.8697916666667,420.4139995574951C1687.5989583333333,420.4139995574951,1695.9322916666667,420.4139995574951,1704.265625,420.4139995574951C1712.5989583333333,420.4139995574951,1720.9322916666667,420.4139995574951,1729.265625,420.4139995574951C1737.5989583333333,420.4139995574951,1745.9322916666667,420.4139995574951,1754.265625,421.1333532631502C1762.5989583333333,421.85270696880525,1770.9322916666667,423.2914143801154,1775.0989583333333,424.01076808577045L1779.265625,424.7301217914256" id="L-TS_A2-ZS_SG2-0" class=" edge-thickness-normal edge-pattern-solid flowchart-link LS-TS_A2 LE-ZS_SG2" style="fill:none;" marker-end="url(#flowchart-pointEnd)"></path><path d="M68.36689956551014,419.4139995574951L87.9737183879251,495.4699996312459C107.5805372103401,571.5259997049967,146.79417485517004,723.6379998524984,177.32156659425172,799.6939999262491C207.84895833333334,875.75,229.69010416666666,875.75,270.46484375,875.75C311.2395833333333,875.75,370.9479166666667,875.75,430.65625,875.75C490.3645833333333,875.75,550.0729166666666,875.75,590.84765625,826C631.6223958333334,776.25,653.4635416666666,676.75,675.3046875,627C697.1458333333334,577.25,718.9869791666666,577.25,742.4950834448233,588.4856665929159C766.0031877229799,599.7213331858317,791.1782504459597,622.1926663716634,803.7657818074498,633.4283329645792L816.3533131689396,644.6639995574951" id="L-TaniumClientExt-TS_A2-0" class=" edge-thickness-normal edge-pattern-dotted flowchart-link LS-TaniumClientExt LE-TS_A2" style="fill:none;stroke-width:2px;stroke-dasharray:3;" marker-end="url(#flowchart-pointEnd)"></path><path d="M92.27456160071942,419.4139995574951L107.89677008393285,428.3306662241618C123.51897856714629,437.24733289082843,154.76339553357315,455.0806662241618,181.30617693345323,463.99733289082843C207.84895833333334,472.9139995574951,229.69010416666666,472.9139995574951,244.77734375,472.9139995574951C259.8645833333333,472.9139995574951,268.1979166666667,472.9139995574951,272.3645833333333,472.9139995574951L276.53125,472.9139995574951" id="L-TaniumClientExt-MS_A2-0" class=" edge-thickness-normal edge-pattern-dotted flowchart-link LS-TaniumClientExt LE-MS_A2" style="fill:none;stroke-width:2px;stroke-dasharray:3;" marker-end="url(#flowchart-pointEnd)"></path><path d="M75.27018417662876,387.4139995574951L93.7264555638573,360.6366662979126C112.18272695108584,333.8593330383301,149.09526972554292,280.30466651916504,178.47211402943813,253.52733325958252C207.84895833333334,226.75,229.69010416666666,226.75,270.46484375,226.75C311.2395833333333,226.75,370.9479166666667,226.75,430.65625,226.75C490.3645833333333,226.75,550.0729166666666,226.75,590.84765625,241.875C631.6223958333334,257,653.4635416666666,287.25,675.3046875,302.375C697.1458333333334,317.5,718.9869791666666,317.5,759.3932291666666,317.5C799.7994791666666,317.5,858.7708333333334,317.5,917.7421875,317.5C976.7135416666666,317.5,1035.6848958333333,317.5,1080.2421875,345.3189999262492C1124.7994791666667,373.13799985249835,1154.9427083333333,428.77599970499676,1185.0859375,456.5949996312459C1215.2291666666667,484.4139995574951,1245.3723958333333,484.4139995574951,1264.6106770833333,484.4139995574951C1283.8489583333333,484.4139995574951,1292.1822916666667,484.4139995574951,1327.9114583333333,484.4139995574951C1363.640625,484.4139995574951,1426.765625,484.4139995574951,1489.890625,484.4139995574951C1553.015625,484.4139995574951,1616.140625,484.4139995574951,1651.8697916666667,484.4139995574951C1687.5989583333333,484.4139995574951,1695.9322916666667,484.4139995574951,1704.265625,484.4139995574951C1712.5989583333333,484.4139995574951,1720.9322916666667,484.4139995574951,1729.265625,484.4139995574951C1737.5989583333333,484.4139995574951,1745.9322916666667,484.4139995574951,1754.265625,483.69464585184005C1762.5989583333333,482.975292146185,1770.9322916666667,481.53658473487485,1775.0989583333333,480.8172310292198L1779.265625,480.09787732356466" id="L-TaniumClientExt-ZS_SG2-0" class=" edge-thickness-normal edge-pattern-dotted flowchart-link LS-TaniumClientExt LE-ZS_SG2" style="fill:none;stroke-width:2px;stroke-dasharray:3;" marker-end="url(#flowchart-pointEnd)"></path><path d="M542.65625,1091.25L553.84375,1091.25C565.03125,1091.25,587.40625,1091.25,609.5143229166666,1059.0689999262493C631.6223958333334,1026.8879998524983,653.4635416666666,962.5259997049967,675.3046875,930.344999631246C697.1458333333334,898.1639995574951,718.9869791666666,898.1639995574951,743.0223471050613,886.0806662241617C767.057715043456,873.9973328908285,793.287305086912,849.8306662241617,806.40210010864,837.7473328908285L819.5168951303681,825.6639995574951" id="L-TaniumConsole-TS_A2-0" class=" edge-thickness-normal edge-pattern-solid flowchart-link LS-TaniumConsole LE-TS_A2" style="fill:none;" marker-end="url(#flowchart-pointEnd)"></path></g><g class="edgeLabels"><g class="edgeLabel"><g class="label" transform="translate(0, 0)"><rect rx="0" ry="0" width="0" height="0"></rect><text style=""><tspan xml:space="preserve" dy="1em" x="0" class="row"></tspan></text></g></g><g class="edgeLabel" transform="translate(917.7421875, 1255)"><g class="label" transform="translate(-82.6953125, -16.5)"><rect rx="0" ry="0" width="166.375" height="34.140625"></rect><text style=""><tspan xml:space="preserve" dy="1em" x="0" class="row">TCP/17472</tspan><tspan xml:space="preserve" dy="1em" x="0" class="row">EMEA Computers Only</tspan></text></g></g><g class="edgeLabel" transform="translate(917.7421875, 68)"><g class="label" transform="translate(-84.4921875, -16.5)"><rect rx="0" ry="0" width="168.90625" height="34.140625"></rect><text style=""><tspan xml:space="preserve" dy="1em" x="0" class="row">TCP/17472,17500</tspan><tspan xml:space="preserve" dy="1em" x="0" class="row">Direct Connect Enabled</tspan></text></g></g><g class="edgeLabel" transform="translate(917.7421875, 193.75)"><g class="label" transform="translate(-40.5234375, -8.5)"><rect rx="0" ry="0" width="81.078125" height="18.140625"></rect><text style=""><tspan xml:space="preserve" dy="1em" x="0" class="row">TCP/17472</tspan></text></g></g><g class="edgeLabel" transform="translate(917.7421875, 402)"><g class="label" transform="translate(-84.4921875, -16.5)"><rect rx="0" ry="0" width="168.90625" height="34.140625"></rect><text style=""><tspan xml:space="preserve" dy="1em" x="0" class="row">TCP/17472,17500</tspan><tspan xml:space="preserve" dy="1em" x="0" class="row">Direct Connect Enabled</tspan></text></g></g><g class="edgeLabel" transform="translate(917.7421875, 1163.5)"><g class="label" transform="translate(-40.5234375, -8.5)"><rect rx="0" ry="0" width="81.078125" height="18.140625"></rect><text style=""><tspan xml:space="preserve" dy="1em" x="0" class="row">TCP/17472</tspan></text></g></g><g class="edgeLabel" transform="translate(675.3046875, 935.1639995574951)"><g class="label" transform="translate(-40.5234375, -8.5)"><rect rx="0" ry="0" width="81.078125" height="18.140625"></rect><text style=""><tspan xml:space="preserve" dy="1em" x="0" class="row">TCP/17477</tspan></text></g></g><g class="edgeLabel" transform="translate(675.3046875, 520.25)"><g class="label" transform="translate(-31.625, -8.5)"><rect rx="0" ry="0" width="63.28125" height="18.140625"></rect><text style=""><tspan xml:space="preserve" dy="1em" x="0" class="row">TCP/443</tspan></text></g></g><g class="edgeLabel" transform="translate(1185.0859375, 128.41399955749512)"><g class="label" transform="translate(-65.4296875, -8.5)"><rect rx="0" ry="0" width="130.875" height="18.140625"></rect><text style=""><tspan xml:space="preserve" dy="1em" x="0" class="row">TCP/17487-17488</tspan></text></g></g><g class="edgeLabel" transform="translate(1185.0859375, 648.1639995574951)"><g class="label" transform="translate(-65.4296875, -8.5)"><rect rx="0" ry="0" width="130.875" height="18.140625"></rect><text style=""><tspan xml:space="preserve" dy="1em" x="0" class="row">TCP/17487-17488</tspan></text></g></g><g class="edgeLabel" transform="translate(1185.0859375, 1243.5860004425049)"><g class="label" transform="translate(-36.0703125, -8.5)"><rect rx="0" ry="0" width="72.1875" height="18.140625"></rect><text style=""><tspan xml:space="preserve" dy="1em" x="0" class="row">TCP/1433</tspan></text></g></g><g class="edgeLabel"><g class="label" transform="translate(0, 0)"><rect rx="0" ry="0" width="0" height="0"></rect><text style=""><tspan xml:space="preserve" dy="1em" x="0" class="row"></tspan></text></g></g><g class="edgeLabel"><g class="label" transform="translate(0, 0)"><rect rx="0" ry="0" width="0" height="0"></rect><text style=""><tspan xml:space="preserve" dy="1em" x="0" class="row"></tspan></text></g></g><g class="edgeLabel" transform="translate(1489.890625, 246.16399955749512)"><g class="label" transform="translate(-40.5234375, -8.5)"><rect rx="0" ry="0" width="81.078125" height="18.140625"></rect><text style=""><tspan xml:space="preserve" dy="1em" x="0" class="row">TCP/17472</tspan></text></g></g><g class="edgeLabel" transform="translate(1489.890625, 735.1639995574951)"><g class="label" transform="translate(-40.5234375, -8.5)"><rect rx="0" ry="0" width="81.078125" height="18.140625"></rect><text style=""><tspan xml:space="preserve" dy="1em" x="0" class="row">TCP/17472</tspan></text></g></g><g class="edgeLabel" transform="translate(1489.890625, 420.4139995574951)"><g class="label" transform="translate(-40.5234375, -8.5)"><rect rx="0" ry="0" width="81.078125" height="18.140625"></rect><text style=""><tspan xml:space="preserve" dy="1em" x="0" class="row">TCP/17472</tspan></text></g></g><g class="edgeLabel" transform="translate(430.65625, 875.75)"><g class="label" transform="translate(-40.5234375, -16.5)"><rect rx="0" ry="0" width="81.078125" height="34.140625"></rect><text style=""><tspan xml:space="preserve" dy="1em" x="0" class="row">TCP/17472</tspan><tspan xml:space="preserve" dy="1em" x="0" class="row">Unused</tspan></text></g></g><g class="edgeLabel" transform="translate(186.0078125, 472.9139995574951)"><g class="label" transform="translate(-40.5234375, -16.5)"><rect rx="0" ry="0" width="81.078125" height="34.140625"></rect><text style=""><tspan xml:space="preserve" dy="1em" x="0" class="row">TCP/17475</tspan><tspan xml:space="preserve" dy="1em" x="0" class="row">Unused</tspan></text></g></g><g class="edgeLabel" transform="translate(917.7421875, 317.5)"><g class="label" transform="translate(-40.5234375, -8.5)"><rect rx="0" ry="0" width="81.078125" height="18.140625"></rect><text style=""><tspan xml:space="preserve" dy="1em" x="0" class="row">TCP/17472</tspan></text></g></g><g class="edgeLabel" transform="translate(675.3046875, 898.1639995574951)"><g class="label" transform="translate(-31.625, -8.5)"><rect rx="0" ry="0" width="63.28125" height="18.140625"></rect><text style=""><tspan xml:space="preserve" dy="1em" x="0" class="row">TCP/443</tspan></text></g></g></g><g class="nodes"><g class="node default default" id="flowchart-SQL_A2_3-67" label-offset-y="16.114665245013107" transform="translate(1489.890625, 1243.5860004425049)"><path style="" d="M 0,16.114665245013107 a 113.3515625,16.114665245013107 0,0,0 226.703125 0 a 113.3515625,16.114665245013107 0,0,0 -226.703125 0 l 0,48.11466524501311 a 113.3515625,16.114665245013107 0,0,0 226.703125 0 l 0,-48.11466524501311" transform="translate(-113.3515625,-40.171997867519664)"></path><g class="label" style="" transform="translate(-105.8515625, -8.5)"><text style=""><tspan xml:space="preserve" dy="1em" x="0" class="row">a2pwtansocsql03.dc1.corp.gd</tspan></text></g></g><g class="node default default" id="flowchart-SQL_A2_4-68" label-offset-y="16.114665245013107" transform="translate(1939.6171875, 1243.5860004425049)"><path style="" d="M 0,16.114665245013107 a 113.3515625,16.114665245013107 0,0,0 226.703125 0 a 113.3515625,16.114665245013107 0,0,0 -226.703125 0 l 0,48.11466524501311 a 113.3515625,16.114665245013107 0,0,0 226.703125 0 l 0,-48.11466524501311" transform="translate(-113.3515625,-40.171997867519664)"></path><g class="label" style="" transform="translate(-105.8515625, -8.5)"><text style=""><tspan xml:space="preserve" dy="1em" x="0" class="row">a2pwtansocsql04.dc1.corp.gd</tspan></text></g></g><g class="root" transform="translate(1318.015625, 1001.9139995574951)"><g class="clusters"><g class="cluster default" id="ZH_P3"><rect style="" rx="0" ry="0" x="8" y="8" width="328.75" height="82"></rect><g class="cluster-label" transform="translate(107.734375, 13)"><text style=""><tspan xml:space="preserve" dy="1em" x="0" class="row">Phoenix, AZ, USA</tspan></text></g></g></g><g class="edgePaths"></g><g class="edgeLabels"></g><g class="nodes"><g class="node default default" id="flowchart-ZH_P3_1-66" transform="translate(172.375, 49)"><rect class="basic label-container" style="" rx="0" ry="0" x="-129.375" y="-16" width="258.75" height="32"></rect><g class="label" style="" transform="translate(-121.875, -8.5)"><text style=""><tspan xml:space="preserve" dy="1em" x="0" class="row">p3pwtaniumhub03.cloud.phx3.gdg</tspan></text></g></g></g></g><g class="root" transform="translate(1771.765625, 395.4139995574951)"><g class="clusters"><g class="cluster default" id="ZS_SG2"><rect style="" rx="0" ry="0" x="8" y="8" width="320.703125" height="98"></rect><g class="cluster-label" transform="translate(115.875, 13)"><text style=""><tspan xml:space="preserve" dy="1em" x="0" class="row">Singapore, SG</tspan></text></g></g></g><g class="edgePaths"></g><g class="edgeLabels"></g><g class="nodes"><g class="node default default" id="flowchart-ZS_SG2_1-64" transform="translate(168.3515625, 57)"><rect class="basic label-container" style="" rx="0" ry="0" x="-125.3515625" y="-24" width="250.703125" height="48"></rect><g class="label" style="" transform="translate(-117.8515625, -16.5)"><text style=""><tspan xml:space="preserve" dy="1em" x="0" class="row">sg2pwtaniumzs01.cloud.sin2.gdg</tspan><tspan xml:space="preserve" dy="1em" x="0" class="row">Internal Only</tspan></text></g></g></g></g><g class="node default default" id="flowchart-ZS_CGN_1-65" transform="translate(1939.6171875, 1002.9139995574951)"><rect class="basic label-container" style="" rx="0" ry="0" x="-144.8984375" y="-24" width="289.796875" height="48"></rect><g class="label" style="" transform="translate(-137.3984375, -16.5)"><text style=""><tspan xml:space="preserve" dy="1em" x="0" class="row">cgnpwtaniumzs01.tanium.gde.systems</tspan><tspan xml:space="preserve" dy="1em" x="0" class="row">Internal Only</tspan></text></g></g><g class="node default default" id="flowchart-ZS_P3_1-62" transform="translate(1939.6171875, 614.4139995574951)"><rect class="basic label-container" style="" rx="0" ry="0" x="-116.4609375" y="-24" width="232.921875" height="48"></rect><g class="label" style="" transform="translate(-108.9609375, -16.5)"><text style=""><tspan xml:space="preserve" dy="1em" x="0" class="row">p3pwtaniumzon01.dc1.corp.gd</tspan><tspan xml:space="preserve" dy="1em" x="0" class="row">Internal &amp; External</tspan></text></g></g><g class="node default default" id="flowchart-ZS_P3_2-63" transform="translate(1939.6171875, 826.4139995574951)"><rect class="basic label-container" style="" rx="0" ry="0" x="-128.921875" y="-24" width="257.84375" height="48"></rect><g class="label" style="" transform="translate(-121.421875, -16.5)"><text style=""><tspan xml:space="preserve" dy="1em" x="0" class="row">p3pwtaniumzon02.cloud.phx3.gdg</tspan><tspan xml:space="preserve" dy="1em" x="0" class="row">Internal Only</tspan></text></g></g><g class="node default default" id="flowchart-ZS_A2_1-60" transform="translate(1939.6171875, 211.41399955749512)"><rect class="basic label-container" style="" rx="0" ry="0" x="-116.4609375" y="-24" width="232.921875" height="48"></rect><g class="label" style="" transform="translate(-108.9609375, -16.5)"><text style=""><tspan xml:space="preserve" dy="1em" x="0" class="row">a2pwtaniumzon01.dc1.corp.gd</tspan><tspan xml:space="preserve" dy="1em" x="0" class="row">Internal &amp; External</tspan></text></g></g><g class="node default default" id="flowchart-ZS_A2_2-61" transform="translate(1939.6171875, 309.4139995574951)"><rect class="basic label-container" style="" rx="0" ry="0" x="-126.703125" y="-24" width="253.40625" height="48"></rect><g class="label" style="" transform="translate(-119.203125, -16.5)"><text style=""><tspan xml:space="preserve" dy="1em" x="0" class="row">a2pwtaniumzon02.cloud.iad2.gdg</tspan><tspan xml:space="preserve" dy="1em" x="0" class="row">Internal Only</tspan></text></g></g><g class="root" transform="translate(269.03125, 423.9139995574951)"><g class="clusters"><g class="cluster default" id="MS_A2"><rect style="" rx="0" ry="0" x="8" y="8" width="308.25" height="82"></rect><g class="cluster-label" transform="translate(96.7421875, 13)"><text style=""><tspan xml:space="preserve" dy="1em" x="0" class="row">Ashburn, VA, USA</tspan></text></g></g></g><g class="edgePaths"></g><g class="edgeLabels"></g><g class="nodes"><g class="node default default" id="flowchart-MS_A2_1-59" transform="translate(162.125, 49)"><rect class="basic label-container" style="" rx="0" ry="0" x="-119.125" y="-16" width="238.25" height="32"></rect><g class="label" style="" transform="translate(-111.625, -8.5)"><text style=""><tspan xml:space="preserve" dy="1em" x="0" class="row">a2pwtaniummod01.dc1.corp.gd</tspan></text></g></g></g></g><g class="root" transform="translate(758.328125, 636.6639995574951)"><g class="clusters"><g class="cluster default" id="TS_A2"><rect style="" rx="0" ry="0" x="8" y="8" width="303.828125" height="181"></rect><g class="cluster-label" transform="translate(94.53125, 13)"><text style=""><tspan xml:space="preserve" dy="1em" x="0" class="row">Ashburn, VA, USA</tspan></text></g></g></g><g class="edgePaths"><path d="M159.9140625,65L159.9140625,70.58333333333333C159.9140625,76.16666666666667,159.9140625,87.33333333333333,159.9140625,98.5C159.9140625,109.66666666666667,159.9140625,120.83333333333333,159.9140625,126.41666666666667L159.9140625,132" id="L-TS_A2_1-TS_A2_2-0" class=" edge-thickness-normal edge-pattern-solid flowchart-link LS-TS_A2_1 LE-TS_A2_2" style="fill:none;" marker-start="url(#flowchart-pointStart)" marker-end="url(#flowchart-pointEnd)"></path></g><g class="edgeLabels"><g class="edgeLabel" transform="translate(159.9140625, 98.5)"><g class="label" transform="translate(-40.5234375, -8.5)"><rect rx="0" ry="0" width="81.078125" height="18.140625"></rect><text style=""><tspan xml:space="preserve" dy="1em" x="0" class="row">TCP/17472</tspan></text></g></g></g><g class="nodes"><g class="node default default" id="flowchart-TS_A2_1-55" transform="translate(159.9140625, 49)"><rect class="basic label-container" style="" rx="0" ry="0" x="-116.9140625" y="-16" width="233.828125" height="32"></rect><g class="label" style="" transform="translate(-109.4140625, -8.5)"><text style=""><tspan xml:space="preserve" dy="1em" x="0" class="row">a2pwtaniumhub01.dc1.corp.gd</tspan></text></g></g><g class="node default default" id="flowchart-TS_A2_2-56" transform="translate(159.9140625, 148)"><rect class="basic label-container" style="" rx="0" ry="0" x="-116.9140625" y="-16" width="233.828125" height="32"></rect><g class="label" style="" transform="translate(-109.4140625, -8.5)"><text style=""><tspan xml:space="preserve" dy="1em" x="0" class="row">a2pwtaniumhub02.dc1.corp.gd</tspan></text></g></g></g></g><g class="node default default" id="flowchart-TaniumClientExt-71" transform="translate(64.2421875, 403.4139995574951)"><rect class="basic label-container" style="" rx="0" ry="0" x="-56.2421875" y="-16" width="112.484375" height="32"></rect><g class="label" style="" transform="translate(-48.7421875, -8.5)"><text style=""><tspan xml:space="preserve" dy="1em" x="0" class="row">Tanium Client</tspan></text></g></g><a xlink:href="https://tanium.int.gdcorp.tools" target="_blank" transform="translate(430.65625, 1091.25)"><g class="node default clickable" id="flowchart-TaniumConsole-72" title="Tanium Console (VPN Required)"><rect class="basic label-container" style="" rx="0" ry="0" x="-112" y="-24" width="224" height="48"></rect><g class="label" style="" transform="translate(-104.5, -16.5)"><text style=""><tspan xml:space="preserve" dy="1em" x="0" class="row">Tanium Console</tspan><tspan xml:space="preserve" dy="1em" x="0" class="row">https://tanium.int.gdcorp.tools</tspan></text></g></g></a></g></g></g></svg>