<svg id="mermaid-1619818818986" width="100%" xmlns="http://www.w3.org/2000/svg" xmlns:xlink="http://www.w3.org/1999/xlink" height="1063" style="max-width: 2015px;" viewBox="0 0 2015 1063"><style>#mermaid-1619818818986{font-family:"trebuchet ms",verdana,arial,sans-serif;font-size:16px;fill:#333;}#mermaid-1619818818986 .error-icon{fill:#552222;}#mermaid-1619818818986 .error-text{fill:#552222;stroke:#552222;}#mermaid-1619818818986 .edge-thickness-normal{stroke-width:2px;}#mermaid-1619818818986 .edge-thickness-thick{stroke-width:3.5px;}#mermaid-1619818818986 .edge-pattern-solid{stroke-dasharray:0;}#mermaid-1619818818986 .edge-pattern-dashed{stroke-dasharray:3;}#mermaid-1619818818986 .edge-pattern-dotted{stroke-dasharray:2;}#mermaid-1619818818986 .marker{fill:#333333;stroke:#333333;}#mermaid-1619818818986 .marker.cross{stroke:#333333;}#mermaid-1619818818986 svg{font-family:"trebuchet ms",verdana,arial,sans-serif;font-size:16px;}#mermaid-1619818818986 .label{font-family:"trebuchet ms",verdana,arial,sans-serif;color:#333;}#mermaid-1619818818986 .cluster-label text{fill:#333;}#mermaid-1619818818986 .cluster-label span{color:#333;}#mermaid-1619818818986 .label text,#mermaid-1619818818986 span{fill:#333;color:#333;}#mermaid-1619818818986 .node rect,#mermaid-1619818818986 .node circle,#mermaid-1619818818986 .node ellipse,#mermaid-1619818818986 .node polygon,#mermaid-1619818818986 .node path{fill:#ECECFF;stroke:#9370DB;stroke-width:1px;}#mermaid-1619818818986 .node .label{text-align:center;}#mermaid-1619818818986 .node.clickable{cursor:pointer;}#mermaid-1619818818986 .arrowheadPath{fill:#333333;}#mermaid-1619818818986 .edgePath .path{stroke:#333333;stroke-width:1.5px;}#mermaid-1619818818986 .flowchart-link{stroke:#333333;fill:none;}#mermaid-1619818818986 .edgeLabel{background-color:#e8e8e8;text-align:center;}#mermaid-1619818818986 .edgeLabel rect{opacity:0.5;background-color:#e8e8e8;fill:#e8e8e8;}#mermaid-1619818818986 .cluster rect{fill:#ffffde;stroke:#aaaa33;stroke-width:1px;}#mermaid-1619818818986 .cluster text{fill:#333;}#mermaid-1619818818986 .cluster span{color:#333;}#mermaid-1619818818986 div.mermaidTooltip{position:absolute;text-align:center;max-width:200px;padding:2px;font-family:"trebuchet ms",verdana,arial,sans-serif;font-size:12px;background:hsl(80,100%,96.2745098039%);border:1px solid #aaaa33;border-radius:2px;pointer-events:none;z-index:100;}#mermaid-1619818818986:root{--mermaid-font-family:"trebuchet ms",verdana,arial,sans-serif;}#mermaid-1619818818986 .className &gt; *{fill:#f9f !important;stroke:#333 !important;stroke-width:4px !important;}#mermaid-1619818818986 .className tspan{!important;}#mermaid-1619818818986 flowchart-v2{fill:apa;}</style><g transform="translate(0, 0)"><marker id="flowchart-pointEnd" class="marker flowchart" viewBox="0 0 10 10" refX="9" refY="5" markerUnits="userSpaceOnUse" markerWidth="12" markerHeight="12" orient="auto"><path d="M 0 0 L 10 5 L 0 10 z" class="arrowMarkerPath" style="stroke-width: 1; stroke-dasharray: 1, 0;"></path></marker><marker id="flowchart-pointStart" class="marker flowchart" viewBox="0 0 10 10" refX="0" refY="5" markerUnits="userSpaceOnUse" markerWidth="12" markerHeight="12" orient="auto"><path d="M 0 5 L 10 10 L 10 0 z" class="arrowMarkerPath" style="stroke-width: 1; stroke-dasharray: 1, 0;"></path></marker><marker id="flowchart-circleEnd" class="marker flowchart" viewBox="0 0 10 10" refX="11" refY="5" markerUnits="userSpaceOnUse" markerWidth="11" markerHeight="11" orient="auto"><circle cx="5" cy="5" r="5" class="arrowMarkerPath" style="stroke-width: 1; stroke-dasharray: 1, 0;"></circle></marker><marker id="flowchart-circleStart" class="marker flowchart" viewBox="0 0 10 10" refX="-1" refY="5" markerUnits="userSpaceOnUse" markerWidth="11" markerHeight="11" orient="auto"><circle cx="5" cy="5" r="5" class="arrowMarkerPath" style="stroke-width: 1; stroke-dasharray: 1, 0;"></circle></marker><marker id="flowchart-crossEnd" class="marker cross flowchart" viewBox="0 0 11 11" refX="12" refY="5.2" markerUnits="userSpaceOnUse" markerWidth="11" markerHeight="11" orient="auto"><path d="M 1,1 l 9,9 M 10,1 l -9,9" class="arrowMarkerPath" style="stroke-width: 2; stroke-dasharray: 1, 0;"></path></marker><marker id="flowchart-crossStart" class="marker cross flowchart" viewBox="0 0 11 11" refX="-1" refY="5.2" markerUnits="userSpaceOnUse" markerWidth="11" markerHeight="11" orient="auto"><path d="M 1,1 l 9,9 M 10,1 l -9,9" class="arrowMarkerPath" style="stroke-width: 2; stroke-dasharray: 1, 0;"></path></marker><g class="root"><g class="clusters"><g class="cluster default" id="SQL"><rect style="" rx="0" ry="0" x="1141" y="8" width="298" height="234"></rect><g class="cluster-label" transform="translate(1248, 13)"><text style=""><tspan xml:space="preserve" dy="1em" x="0" class="row">SQL Server</tspan></text></g></g><g class="cluster default" id="ZH"><rect style="" rx="0" ry="0" x="1141" y="262" width="298" height="152"></rect><g class="cluster-label" transform="translate(1201, 267)"><text style=""><tspan xml:space="preserve" dy="1em" x="0" class="row">Tanium Zone Server Hub</tspan></text></g></g><g class="cluster default" id="ZS"><rect style="" rx="0" ry="0" x="1489" y="276" width="518" height="779"></rect><g class="cluster-label" transform="translate(1675.5, 281)"><text style=""><tspan xml:space="preserve" dy="1em" x="0" class="row">Tanium Zone Server</tspan></text></g></g><g class="cluster default" id="MS"><rect style="" rx="0" ry="0" x="254" y="306.5" width="297" height="153"></rect><g class="cluster-label" transform="translate(322, 311.5)"><text style=""><tspan xml:space="preserve" dy="1em" x="0" class="row">Tanium Module Server</tspan></text></g></g><g class="cluster default" id="TS"><rect style="" rx="0" ry="0" x="683" y="46.5" width="295" height="638.5"></rect><g class="cluster-label" transform="translate(778.5, 51.5)"><text style=""><tspan xml:space="preserve" dy="1em" x="0" class="row">Tanium Server</tspan></text></g></g></g><g class="edgePaths"><path d="M708,395.728813559322L703.8333333333334,396.774011299435C699.6666666666666,397.819209039548,691.3333333333334,399.90960451977406,676.1666666666666,400.954802259887C661,402,639,402,617,402C595,402,573,402,557.8333333333334,401.48092031425364C542.6666666666666,400.96184062850733,534.3333333333334,399.9236812570146,530.1666666666666,399.4046015712682L526,398.8855218855219" id="L-TS_A2-MS_P3" class=" edge-thickness-thick edge-pattern-solid flowchart-link LS-TS_A2 LE-MS_P3" style="stroke-width: 3.5px;fill:none;" marker-end="url(#flowchart-pointEnd)"></path><path d="M526,360.21380471380473L530.1666666666666,359.42817059483724C534.3333333333334,358.6425364758698,542.6666666666666,357.0712682379349,557.8333333333334,356.28563411896744C573,355.5,595,355.5,617,355.5C639,355.5,661,355.5,676.1666666666666,355.76836158192094C691.3333333333334,356.0367231638418,699.6666666666666,356.5734463276836,703.8333333333334,356.84180790960454L708,357.1101694915254" id="L-MS_P3-TS_A2" class=" edge-thickness-thick edge-pattern-solid flowchart-link LS-MS_P3 LE-TS_A2" style="stroke-width: 3.5px;fill:none;" marker-end="url(#flowchart-pointEnd)"></path><path d="M886.1197916666666,274.5L901.4331597222222,249.58333333333334C916.7465277777777,224.66666666666666,947.3732638888888,174.83333333333334,976.2699652777778,149.91666666666666C1005.1666666666666,125,1032.3333333333333,125,1059.5,125C1086.6666666666667,125,1113.8333333333333,125,1131.5833333333333,125C1149.3333333333333,125,1157.6666666666667,125,1161.8333333333333,125L1166,125" id="L-TS_A2-SQL_A2" class=" edge-thickness-thick edge-pattern-solid flowchart-link LS-TS_A2 LE-SQL_A2" style="stroke-width: 3.5px;fill:none;" marker-end="url(#flowchart-pointEnd)"></path><path d="M953,342.5762711864407L957.1666666666666,341.8135593220339C961.3333333333334,341.0508474576271,969.6666666666666,339.52542372881356,987.4166666666666,338.76271186440675C1005.1666666666666,338,1032.3333333333333,338,1059.5,338C1086.6666666666667,338,1113.8333333333333,338,1131.8333333333333,338C1149.8333333333333,338,1158.6666666666667,338,1163.0833333333333,338L1167.5,338" id="L-TS_A2-ZH_A2" class=" edge-thickness-normal edge-pattern-solid flowchart-link LS-TS_A2 LE-ZH_A2" style="fill:none;" marker-end="url(#flowchart-pointEnd)"></path><path d="M953,447.4279661016949L957.1666666666666,450.23163841807906C961.3333333333334,453.0353107344633,969.6666666666666,458.6426553672316,987.4166666666666,461.44632768361583C1005.1666666666666,464.25,1032.3333333333333,464.25,1059.5,464.25C1086.6666666666667,464.25,1113.8333333333333,464.25,1152.25,464.25C1190.6666666666667,464.25,1240.3333333333333,464.25,1290,464.25C1339.6666666666667,464.25,1389.3333333333333,464.25,1418.3333333333333,464.25C1447.3333333333333,464.25,1455.6666666666667,464.25,1464,464.25C1472.3333333333333,464.25,1480.6666666666667,464.25,1514.7179487179485,482.625C1548.7692307692307,501,1608.5384615384617,537.75,1638.423076923077,556.125L1668.3076923076924,574.5" id="L-TS_A2-ZS_A2" class=" edge-thickness-normal edge-pattern-solid flowchart-link LS-TS_A2 LE-ZS_A2" style="fill:none;" marker-end="url(#flowchart-pointEnd)"></path><path d="M900.1153846153846,455.5L913.0961538461538,472.375C926.0769230769232,489.25,952.0384615384615,523,978.6025641025641,539.875C1005.1666666666666,556.75,1032.3333333333333,556.75,1059.5,556.75C1086.6666666666667,556.75,1113.8333333333333,556.75,1152.25,556.75C1190.6666666666667,556.75,1240.3333333333333,556.75,1290,556.75C1339.6666666666667,556.75,1389.3333333333333,556.75,1418.3333333333333,556.75C1447.3333333333333,556.75,1455.6666666666667,556.75,1464,556.75C1472.3333333333333,556.75,1480.6666666666667,556.75,1518.150562669771,584.375C1555.6344586728756,612,1622.2689173457509,667.25,1655.5861466821887,694.875L1688.9033760186262,722.5" id="L-TS_A2-ZS_P3" class=" edge-thickness-normal edge-pattern-solid flowchart-link LS-TS_A2 LE-ZS_P3" style="fill:none;" marker-end="url(#flowchart-pointEnd)"></path><path d="M877.4613016710642,455.5L894.2177513925535,487.7916666666667C910.9742011140428,520.0833333333334,944.4871005570213,584.6666666666666,974.8268836118441,616.9583333333334C1005.1666666666666,649.25,1032.3333333333333,649.25,1059.5,649.25C1086.6666666666667,649.25,1113.8333333333333,649.25,1152.25,649.25C1190.6666666666667,649.25,1240.3333333333333,649.25,1290,649.25C1339.6666666666667,649.25,1389.3333333333333,649.25,1418.3333333333333,649.25C1447.3333333333333,649.25,1455.6666666666667,649.25,1464,649.25C1472.3333333333333,649.25,1480.6666666666667,649.25,1520.1732963305583,686.125C1559.6799259944498,723,1630.3598519888992,796.75,1665.699814986124,833.625L1701.0397779833488,870.5" id="L-TS_A2-ZS_SG2" class=" edge-thickness-normal edge-pattern-solid flowchart-link LS-TS_A2 LE-ZS_SG2" style="fill:none;" marker-end="url(#flowchart-pointEnd)"></path><path d="M1412.5,338L1416.9166666666667,338C1421.3333333333333,338,1430.1666666666667,338,1438.75,338C1447.3333333333333,338,1455.6666666666667,338,1464,338C1472.3333333333333,338,1480.6666666666667,338,1512.6169696969698,352.75C1544.567272727273,367.5,1600.1345454545456,397,1627.9181818181817,411.75L1655.7018181818182,426.5" id="L-ZH_A2-ZS_CGN" class=" edge-thickness-normal edge-pattern-solid flowchart-link LS-ZH_A2 LE-ZS_CGN" style="fill:none;" marker-end="url(#flowchart-pointEnd)"></path><path d="M67.79545454545455,779.5L87.82954545454545,664.8333333333334C107.86363636363637,550.1666666666666,147.9318181818182,320.8333333333333,178.9659090909091,206.16666666666666C210,91.5,232,91.5,267.75,91.5C303.5,91.5,353,91.5,402.5,91.5C452,91.5,501.5,91.5,537.25,91.5C573,91.5,595,91.5,617,91.5C639,91.5,661,91.5,688.4488117001829,122C715.8976234003657,152.5,748.7952468007312,213.5,765.2440585009141,244L781.6928702010969,274.5" id="L-TaniumClient-TS_A2" class=" edge-thickness-normal edge-pattern-dotted flowchart-link LS-TaniumClient LE-TS_A2" style="fill:none;stroke-width:2px;stroke-dasharray:3;" marker-end="url(#flowchart-pointEnd)"></path><path d="M69.7766990291262,779.5L89.48058252427184,713.5C109.18446601941747,647.5,148.59223300970874,515.5,179.29611650485435,449.5C210,383.5,232,383.5,247.16666666666666,383.5C262.3333333333333,383.5,270.6666666666667,383.5,274.8333333333333,383.5L279,383.5" id="L-TaniumClient-MS_P3" class=" edge-thickness-normal edge-pattern-dotted flowchart-link LS-TaniumClient LE-MS_P3" style="fill:none;stroke-width:2px;stroke-dasharray:3;" marker-end="url(#flowchart-pointEnd)"></path><path d="M91.5945945945946,779.5L107.66216216216215,769.8333333333334C123.72972972972973,760.1666666666666,155.86486486486487,740.8333333333334,182.93243243243242,731.1666666666666C210,721.5,232,721.5,267.75,721.5C303.5,721.5,353,721.5,402.5,721.5C452,721.5,501.5,721.5,537.25,721.5C573,721.5,595,721.5,617,721.5C639,721.5,661,721.5,696.5833333333334,721.5C732.1666666666666,721.5,781.3333333333334,721.5,830.5,721.5C879.6666666666666,721.5,928.8333333333334,721.5,967,721.5C1005.1666666666666,721.5,1032.3333333333333,721.5,1059.5,721.5C1086.6666666666667,721.5,1113.8333333333333,721.5,1152.25,721.5C1190.6666666666667,721.5,1240.3333333333333,721.5,1290,721.5C1339.6666666666667,721.5,1389.3333333333333,721.5,1418.3333333333333,721.5C1447.3333333333333,721.5,1455.6666666666667,721.5,1464,721.5C1472.3333333333333,721.5,1480.6666666666667,721.5,1519.4017615176151,688.6666666666666C1558.1368563685637,655.8333333333334,1627.2737127371274,590.1666666666666,1661.842140921409,557.3333333333334L1696.4105691056911,524.5" id="L-TaniumClient-ZS_CGN" class=" edge-thickness-normal edge-pattern-dotted flowchart-link LS-TaniumClient LE-ZS_CGN" style="fill:none;stroke-width:2px;stroke-dasharray:3;" marker-end="url(#flowchart-pointEnd)"></path><path d="M122,805.9268292682926L133,807.9390243902438C144,809.9512195121952,166,813.9756097560976,188,815.9878048780488C210,818,232,818,267.75,818C303.5,818,353,818,402.5,818C452,818,501.5,818,537.25,818C573,818,595,818,617,818C639,818,661,818,696.5833333333334,818C732.1666666666666,818,781.3333333333334,818,830.5,818C879.6666666666666,818,928.8333333333334,818,967,818C1005.1666666666666,818,1032.3333333333333,818,1059.5,818C1086.6666666666667,818,1113.8333333333333,818,1152.25,818C1190.6666666666667,818,1240.3333333333333,818,1290,818C1339.6666666666667,818,1389.3333333333333,818,1418.3333333333333,818C1447.3333333333333,818,1455.6666666666667,818,1464,818C1472.3333333333333,818,1480.6666666666667,818,1517.1251071122535,793.75C1553.5835475578406,769.5,1618.1670951156811,721,1650.4588688946014,696.75L1682.750642673522,672.5" id="L-TaniumClient-ZS_A2" class=" edge-thickness-normal edge-pattern-dotted flowchart-link LS-TaniumClient LE-ZS_A2" style="fill:none;stroke-width:2px;stroke-dasharray:3;" marker-end="url(#flowchart-pointEnd)"></path><path d="M82.11304347826086,811.5L99.76086956521738,828C117.4086956521739,844.5,152.70434782608694,877.5,181.35217391304346,894C210,910.5,232,910.5,267.75,910.5C303.5,910.5,353,910.5,402.5,910.5C452,910.5,501.5,910.5,537.25,910.5C573,910.5,595,910.5,617,910.5C639,910.5,661,910.5,696.5833333333334,910.5C732.1666666666666,910.5,781.3333333333334,910.5,830.5,910.5C879.6666666666666,910.5,928.8333333333334,910.5,967,910.5C1005.1666666666666,910.5,1032.3333333333333,910.5,1059.5,910.5C1086.6666666666667,910.5,1113.8333333333333,910.5,1152.25,910.5C1190.6666666666667,910.5,1240.3333333333333,910.5,1290,910.5C1339.6666666666667,910.5,1389.3333333333333,910.5,1418.3333333333333,910.5C1447.3333333333333,910.5,1455.6666666666667,910.5,1464,910.5C1472.3333333333333,910.5,1480.6666666666667,910.5,1512.782973621103,895.5C1544.8992805755395,880.5,1600.7985611510792,850.5,1628.7482014388488,835.5L1656.6978417266187,820.5" id="L-TaniumClient-ZS_P3" class=" edge-thickness-normal edge-pattern-dotted flowchart-link LS-TaniumClient LE-ZS_P3" style="fill:none;stroke-width:2px;stroke-dasharray:3;" marker-end="url(#flowchart-pointEnd)"></path><path d="M74.48433734939759,811.5L93.40361445783132,843.4166666666666C112.32289156626507,875.3333333333334,150.16144578313254,939.1666666666666,180.0807228915663,971.0833333333334C210,1003,232,1003,267.75,1003C303.5,1003,353,1003,402.5,1003C452,1003,501.5,1003,537.25,1003C573,1003,595,1003,617,1003C639,1003,661,1003,696.5833333333334,1003C732.1666666666666,1003,781.3333333333334,1003,830.5,1003C879.6666666666666,1003,928.8333333333334,1003,967,1003C1005.1666666666666,1003,1032.3333333333333,1003,1059.5,1003C1086.6666666666667,1003,1113.8333333333333,1003,1152.25,1003C1190.6666666666667,1003,1240.3333333333333,1003,1290,1003C1339.6666666666667,1003,1389.3333333333333,1003,1418.3333333333333,1003C1447.3333333333333,1003,1455.6666666666667,1003,1464,1003C1472.3333333333333,1003,1480.6666666666667,1003,1507.75,995.6118082368083C1534.8333333333333,988.2236164736165,1580.6666666666667,973.4472329472329,1603.5833333333333,966.0590411840412L1626.5,958.6708494208494" id="L-TaniumClient-ZS_SG2" class=" edge-thickness-normal edge-pattern-dotted flowchart-link LS-TaniumClient LE-ZS_SG2" style="fill:none;stroke-width:2px;stroke-dasharray:3;" marker-end="url(#flowchart-pointEnd)"></path><path d="M513,167L519.3333333333334,167C525.6666666666666,167,538.3333333333334,167,555.6666666666666,167C573,167,595,167,617,167C639,167,661,167,685.3470117845118,184.91666666666666C709.6940235690236,202.83333333333334,736.3880471380471,238.66666666666666,749.7350589225589,256.5833333333333L763.0820707070707,274.5" id="L-TaniumConsole-TS_A2" class=" edge-thickness-normal edge-pattern-solid flowchart-link LS-TaniumConsole LE-TS_A2" style="fill:none;" marker-end="url(#flowchart-pointEnd)"></path></g><g class="edgeLabels"><g class="edgeLabel" transform="translate(617, 402)"><g class="label" transform="translate(-41, -8.5)"><rect rx="0" ry="0" width="77.109375" height="18"></rect><text style=""><tspan xml:space="preserve" dy="1em" x="0" class="row">TCP/17477</tspan></text></g></g><g class="edgeLabel" transform="translate(617, 355.5)"><g class="label" transform="translate(-32, -8.5)"><rect rx="0" ry="0" width="61.6875" height="18"></rect><text style=""><tspan xml:space="preserve" dy="1em" x="0" class="row">TCP/443</tspan></text></g></g><g class="edgeLabel" transform="translate(1059.5, 125)"><g class="label" transform="translate(-56.5, -8.5)"><rect rx="0" ry="0" width="105.390625" height="18"></rect><text style=""><tspan xml:space="preserve" dy="1em" x="0" class="row">TCP/1433,5432</tspan></text></g></g><g class="edgeLabel"><g class="label" transform="translate(0, 0)"><rect rx="0" ry="0" width="0" height="0"></rect><text style=""><tspan xml:space="preserve" dy="1em" x="0" class="row"></tspan></text></g></g><g class="edgeLabel" transform="translate(1290, 464.25)"><g class="label" transform="translate(-41, -8.5)"><rect rx="0" ry="0" width="77.109375" height="18"></rect><text style=""><tspan xml:space="preserve" dy="1em" x="0" class="row">TCP/17472</tspan></text></g></g><g class="edgeLabel" transform="translate(1290, 556.75)"><g class="label" transform="translate(-41, -8.5)"><rect rx="0" ry="0" width="77.109375" height="18"></rect><text style=""><tspan xml:space="preserve" dy="1em" x="0" class="row">TCP/17472</tspan></text></g></g><g class="edgeLabel" transform="translate(1290, 649.25)"><g class="label" transform="translate(-41, -8.5)"><rect rx="0" ry="0" width="77.109375" height="18"></rect><text style=""><tspan xml:space="preserve" dy="1em" x="0" class="row">TCP/17472</tspan></text></g></g><g class="edgeLabel"><g class="label" transform="translate(0, 0)"><rect rx="0" ry="0" width="0" height="0"></rect><text style=""><tspan xml:space="preserve" dy="1em" x="0" class="row"></tspan></text></g></g><g class="edgeLabel" transform="translate(402.5, 91.5)"><g class="label" transform="translate(-41, -16.5)"><rect rx="0" ry="0" width="77.109375" height="34"></rect><text style=""><tspan xml:space="preserve" dy="1em" x="0" class="row">TCP/17472</tspan><tspan xml:space="preserve" dy="1em" x="0" class="row">Unused</tspan></text></g></g><g class="edgeLabel" transform="translate(188, 383.5)"><g class="label" transform="translate(-41, -16.5)"><rect rx="0" ry="0" width="77.109375" height="34"></rect><text style=""><tspan xml:space="preserve" dy="1em" x="0" class="row">TCP/17475</tspan><tspan xml:space="preserve" dy="1em" x="0" class="row">Unused</tspan></text></g></g><g class="edgeLabel" transform="translate(830.5, 721.5)"><g class="label" transform="translate(-82.5, -16.5)"><rect rx="0" ry="0" width="156.78125" height="36.5625"></rect><text style=""><tspan xml:space="preserve" dy="1em" x="0" class="row">TCP/17472,17500</tspan><tspan xml:space="preserve" dy="1em" x="0" class="row">EMEA Computers Only</tspan></text></g></g><g class="edgeLabel" transform="translate(830.5, 818)"><g class="label" transform="translate(-65.5, -8.5)"><rect rx="0" ry="0" width="120.8125" height="18"></rect><text style=""><tspan xml:space="preserve" dy="1em" x="0" class="row">TCP/17472,17500</tspan></text></g></g><g class="edgeLabel" transform="translate(830.5, 910.5)"><g class="label" transform="translate(-65.5, -8.5)"><rect rx="0" ry="0" width="120.8125" height="18"></rect><text style=""><tspan xml:space="preserve" dy="1em" x="0" class="row">TCP/17472,17500</tspan></text></g></g><g class="edgeLabel" transform="translate(830.5, 1003)"><g class="label" transform="translate(-65.5, -8.5)"><rect rx="0" ry="0" width="120.8125" height="18"></rect><text style=""><tspan xml:space="preserve" dy="1em" x="0" class="row">TCP/17472,17500</tspan></text></g></g><g class="edgeLabel" transform="translate(617, 167)"><g class="label" transform="translate(-32, -8.5)"><rect rx="0" ry="0" width="61.6875" height="18"></rect><text style=""><tspan xml:space="preserve" dy="1em" x="0" class="row">TCP/443</tspan></text></g></g></g><g class="nodes"><g class="root" transform="translate(1158, 35)"><g class="clusters"><g class="cluster default" id="SQL_A2"><rect style="" rx="0" ry="0" x="8" y="8" width="248" height="164"></rect><g class="cluster-label" transform="translate(66.5, 13)"><text style=""><tspan xml:space="preserve" dy="1em" x="0" class="row">Ashburn, VA, USA</tspan></text></g></g></g><g class="edgePaths"><path d="M132,65L132,69.16666666666667C132,73.33333333333333,132,81.66666666666667,132,90C132,98.33333333333333,132,106.66666666666667,132,110.83333333333333L132,115" id="L-SQL_A2_3-SQL_A2_4" class=" edge-thickness-normal edge-pattern-solid flowchart-link LS-SQL_A2_3 LE-SQL_A2_4" style="fill:none;" marker-start="url(#flowchart-pointStart)" marker-end="url(#flowchart-pointEnd)"></path></g><g class="edgeLabels"><g class="edgeLabel"><g class="label" transform="translate(0, 0)"><rect rx="0" ry="0" width="0" height="0"></rect><text style=""><tspan xml:space="preserve" dy="1em" x="0" class="row"></tspan></text></g></g></g><g class="nodes"><g class="node default default" id="flowchart-SQL_A2_3-60" transform="translate(132, 49)"><rect class="basic label-container" style="" rx="0" ry="0" x="-89" y="-16" width="178" height="32"></rect><g class="label" style="" transform="translate(-81.5, -8.5)"><text style=""><tspan xml:space="preserve" dy="1em" x="0" class="row">A2PWTANSOCSQL03</tspan></text></g></g><g class="node default default" id="flowchart-SQL_A2_4-61" transform="translate(132, 131)"><rect class="basic label-container" style="" rx="0" ry="0" x="-89" y="-16" width="178" height="32"></rect><g class="label" style="" transform="translate(-81.5, -8.5)"><text style=""><tspan xml:space="preserve" dy="1em" x="0" class="row">A2PWTANSOCSQL04</tspan></text></g></g></g></g><g class="root" transform="translate(1159.5, 289)"><g class="clusters"><g class="cluster default" id="ZH_A2"><rect style="" rx="0" ry="0" x="8" y="8" width="245" height="82"></rect><g class="cluster-label" transform="translate(65, 13)"><text style=""><tspan xml:space="preserve" dy="1em" x="0" class="row">Ashburn, VA, USA</tspan></text></g></g></g><g class="edgePaths"></g><g class="edgeLabels"></g><g class="nodes"><g class="node default default" id="flowchart-ZH_A2_1-59" transform="translate(130.5, 49)"><rect class="basic label-container" style="" rx="0" ry="0" x="-87.5" y="-16" width="175" height="32"></rect><g class="label" style="" transform="translate(-80, -8.5)"><text style=""><tspan xml:space="preserve" dy="1em" x="0" class="row">A2PWTANIUMHUB03</tspan></text></g></g></g></g><g class="root" transform="translate(1506, 566.5)"><g class="clusters"><g class="cluster default" id="ZS_A2"><rect style="" rx="0" ry="0" x="8" y="8" width="468" height="98"></rect><g class="cluster-label" transform="translate(176.5, 13)"><text style=""><tspan xml:space="preserve" dy="1em" x="0" class="row">Ashburn, VA, USA</tspan></text></g></g></g><g class="edgePaths"></g><g class="edgeLabels"></g><g class="nodes"><g class="node default default" id="flowchart-ZS_A2_1-53" transform="translate(130, 57)"><rect class="basic label-container" style="" rx="0" ry="0" x="-87" y="-24" width="174" height="48"></rect><g class="label" style="" transform="translate(-79.5, -16.5)"><text style=""><tspan xml:space="preserve" dy="1em" x="0" class="row">A2PWTANIUMZON01</tspan><tspan xml:space="preserve" dy="1em" x="0" class="row">Internal &amp; External</tspan></text></g></g><g class="node default default" id="flowchart-ZS_A2_2-54" transform="translate(354, 57)"><rect class="basic label-container" style="" rx="0" ry="0" x="-87" y="-24" width="174" height="48"></rect><g class="label" style="" transform="translate(-79.5, -16.5)"><text style=""><tspan xml:space="preserve" dy="1em" x="0" class="row">A2PWTANIUMZON02</tspan><tspan xml:space="preserve" dy="1em" x="0" class="row">Internal Only</tspan></text></g></g></g></g><g class="root" transform="translate(1506, 714.5)"><g class="clusters"><g class="cluster default" id="ZS_P3"><rect style="" rx="0" ry="0" x="8" y="8" width="468" height="98"></rect><g class="cluster-label" transform="translate(177, 13)"><text style=""><tspan xml:space="preserve" dy="1em" x="0" class="row">Phoenix, AZ, USA</tspan></text></g></g></g><g class="edgePaths"></g><g class="edgeLabels"></g><g class="nodes"><g class="node default default" id="flowchart-ZS_P3_1-55" transform="translate(130, 57)"><rect class="basic label-container" style="" rx="0" ry="0" x="-87" y="-24" width="174" height="48"></rect><g class="label" style="" transform="translate(-79.5, -16.5)"><text style=""><tspan xml:space="preserve" dy="1em" x="0" class="row">P3PWTANIUMZON01</tspan><tspan xml:space="preserve" dy="1em" x="0" class="row">Internal &amp; External</tspan></text></g></g><g class="node default default" id="flowchart-ZS_P3_2-56" transform="translate(354, 57)"><rect class="basic label-container" style="" rx="0" ry="0" x="-87" y="-24" width="174" height="48"></rect><g class="label" style="" transform="translate(-79.5, -16.5)"><text style=""><tspan xml:space="preserve" dy="1em" x="0" class="row">P3PWTANIUMZON02</tspan><tspan xml:space="preserve" dy="1em" x="0" class="row">Internal Only</tspan></text></g></g></g></g><g class="root" transform="translate(1618.5, 862.5)"><g class="clusters"><g class="cluster default" id="ZS_SG2"><rect style="" rx="0" ry="0" x="8" y="8" width="243" height="98"></rect><g class="cluster-label" transform="translate(77, 13)"><text style=""><tspan xml:space="preserve" dy="1em" x="0" class="row">Singapore, SG</tspan></text></g></g></g><g class="edgePaths"></g><g class="edgeLabels"></g><g class="nodes"><g class="node default default" id="flowchart-ZS_SG2_1-57" transform="translate(129.5, 57)"><rect class="basic label-container" style="" rx="0" ry="0" x="-86.5" y="-24" width="173" height="48"></rect><g class="label" style="" transform="translate(-79, -16.5)"><text style=""><tspan xml:space="preserve" dy="1em" x="0" class="row">SG2PWTANIUMZS01</tspan><tspan xml:space="preserve" dy="1em" x="0" class="row">Internal Only</tspan></text></g></g></g></g><g class="root" transform="translate(1628, 418.5)"><g class="clusters"><g class="cluster default" id="ZS_CGN"><rect style="" rx="0" ry="0" x="8" y="8" width="224" height="98"></rect><g class="cluster-label" transform="translate(74, 13)"><text style=""><tspan xml:space="preserve" dy="1em" x="0" class="row">Cologne, DE</tspan></text></g></g></g><g class="edgePaths"></g><g class="edgeLabels"></g><g class="nodes"><g class="node default default" id="flowchart-ZS_CGN_1-58" transform="translate(120, 57)"><rect class="basic label-container" style="" rx="0" ry="0" x="-77" y="-24" width="154" height="48"></rect><g class="label" style="" transform="translate(-69.5, -16.5)"><text style=""><tspan xml:space="preserve" dy="1em" x="0" class="row">CGN-TAN-ZON001</tspan><tspan xml:space="preserve" dy="1em" x="0" class="row">Internal &amp; External</tspan></text></g></g></g></g><g class="root" transform="translate(271, 334.5)"><g class="clusters"><g class="cluster default" id="MS_P3"><rect style="" rx="0" ry="0" x="8" y="8" width="247" height="82"></rect><g class="cluster-label" transform="translate(66.5, 13)"><text style=""><tspan xml:space="preserve" dy="1em" x="0" class="row">Phoenix, AZ, USA</tspan></text></g></g></g><g class="edgePaths"></g><g class="edgeLabels"></g><g class="nodes"><g class="node default default" id="flowchart-MS_P3_1-52" transform="translate(131.5, 49)"><rect class="basic label-container" style="" rx="0" ry="0" x="-88.5" y="-16" width="177" height="32"></rect><g class="label" style="" transform="translate(-81, -8.5)"><text style=""><tspan xml:space="preserve" dy="1em" x="0" class="row">P3PWTANIUMMOD01</tspan></text></g></g></g></g><g class="root" transform="translate(700, 266.5)"><g class="clusters"><g class="cluster default" id="TS_A2"><rect style="" rx="0" ry="0" x="8" y="8" width="245" height="181"></rect><g class="cluster-label" transform="translate(65, 13)"><text style=""><tspan xml:space="preserve" dy="1em" x="0" class="row">Ashburn, VA, USA</tspan></text></g></g></g><g class="edgePaths"><path d="M130.5,65L130.5,70.58333333333333C130.5,76.16666666666667,130.5,87.33333333333333,130.5,98.5C130.5,109.66666666666667,130.5,120.83333333333333,130.5,126.41666666666667L130.5,132" id="L-TS_A2_1-TS_A2_2" class=" edge-thickness-normal edge-pattern-solid flowchart-link LS-TS_A2_1 LE-TS_A2_2" style="fill:none;" marker-start="url(#flowchart-pointStart)" marker-end="url(#flowchart-pointEnd)"></path></g><g class="edgeLabels"><g class="edgeLabel" transform="translate(130.5, 98.5)"><g class="label" transform="translate(-41, -8.5)"><rect rx="0" ry="0" width="77.109375" height="18"></rect><text style=""><tspan xml:space="preserve" dy="1em" x="0" class="row">TCP/17472</tspan></text></g></g></g><g class="nodes"><g class="node default default" id="flowchart-TS_A2_1-48" transform="translate(130.5, 49)"><rect class="basic label-container" style="" rx="0" ry="0" x="-87.5" y="-16" width="175" height="32"></rect><g class="label" style="" transform="translate(-80, -8.5)"><text style=""><tspan xml:space="preserve" dy="1em" x="0" class="row">A2PWTANIUMHUB01</tspan></text></g></g><g class="node default default" id="flowchart-TS_A2_2-49" transform="translate(130.5, 148)"><rect class="basic label-container" style="" rx="0" ry="0" x="-87.5" y="-16" width="175" height="32"></rect><g class="label" style="" transform="translate(-80, -8.5)"><text style=""><tspan xml:space="preserve" dy="1em" x="0" class="row">A2PWTANIUMHUB02</tspan></text></g></g></g></g><g class="node default default" id="flowchart-TaniumClient-64" transform="translate(65, 795.5)"><rect class="basic label-container" style="" rx="0" ry="0" x="-57" y="-16" width="114" height="32"></rect><g class="label" style="" transform="translate(-49.5, -8.5)"><text style=""><tspan xml:space="preserve" dy="1em" x="0" class="row">Tanium Client</tspan></text></g></g><a xlink:href="https://tanium.int.gdcorp.tools" target="_blank" transform="translate(402.5, 167)"><g class="node default clickable" id="flowchart-TaniumConsole-65" title="Tanium Console (VPN Required)"><rect class="basic label-container" style="" rx="0" ry="0" x="-110.5" y="-24" width="221" height="48"></rect><g class="label" style="" transform="translate(-103, -16.5)"><text style=""><tspan xml:space="preserve" dy="1em" x="0" class="row">Tanium Console</tspan><tspan xml:space="preserve" dy="1em" x="0" class="row">https://tanium.int.gdcorp.tools</tspan></text></g></g></a></g></g></g></svg>